<?xml version="1.0" encoding="UTF-8" standalone="no"?>
<svg
   xmlns:dc="http://purl.org/dc/elements/1.1/"
   xmlns:cc="http://creativecommons.org/ns#"
   xmlns:rdf="http://www.w3.org/1999/02/22-rdf-syntax-ns#"
   xmlns:svg="http://www.w3.org/2000/svg"
   xmlns="http://www.w3.org/2000/svg"
   id="svg8"
   version="1.1"
   viewBox="0 0 210 297"
   height="297mm"
   width="210mm">
  <defs
     id="defs2" />
  <metadata
     id="metadata5">
    <rdf:RDF>
      <cc:Work
         rdf:about="">
        <dc:format>image/svg+xml</dc:format>
        <dc:type
           rdf:resource="http://purl.org/dc/dcmitype/StillImage" />
        <dc:title></dc:title>
      </cc:Work>
    </rdf:RDF>
  </metadata>
  <g
     id="layer1">
    <rect
       y="-15.208333"
       x="-24.190477"
       height="354.54166"
       width="269.11905"
       id="rect10"
       style="fill:#002255;stroke-width:0.26458332" />
    <path
       id="path12"
       d="m -5.2916667,-31.083333 c 0,124.479892 0,248.456083 0,372.684523"
       style="fill:#ffffff;stroke:#000000;stroke-width:0.26458332px;stroke-linecap:butt;stroke-linejoin:miter;stroke-opacity:1" />
    <path
       id="path12-6"
       d="m 15.119047,-25.413688 c 0,124.47989 0,248.456088 0,372.684528"
       style="fill:#ffffff;stroke:#000000;stroke-width:0.26458332px;stroke-linecap:butt;stroke-linejoin:miter;stroke-opacity:1" />
    <path
       id="path12-6-5"
       d="m 113.39286,-23.145842 c 0,124.479892 0,248.456092 0,372.684542"
       style="fill:#ffffff;stroke:#000000;stroke-width:0.26458332px;stroke-linecap:butt;stroke-linejoin:miter;stroke-opacity:1" />
    <path
       id="path12-6-56"
       d="m 135.31548,-16.34227 c 0,124.47989 0,248.45609 0,372.68454"
       style="fill:#ffffff;stroke:#000000;stroke-width:0.26458332px;stroke-linecap:butt;stroke-linejoin:miter;stroke-opacity:1" />
    <path
       id="path12-6-9"
       d="m 63.5,-26.925604 c 0,124.47989 0,248.456094 0,372.684544"
       style="fill:#ffffff;stroke:#000000;stroke-width:0.26458332px;stroke-linecap:butt;stroke-linejoin:miter;stroke-opacity:1" />
    <path
       id="path12-6-2"
       d="m 40.065476,-27.681556 c 0,124.47989 0,248.456096 0,372.684546"
       style="fill:#ffffff;stroke:#000000;stroke-width:0.26458332px;stroke-linecap:butt;stroke-linejoin:miter;stroke-opacity:1" />
    <path
       id="path12-6-93"
       d="m 161.77381,-32.973223 c 0,124.47989 0,248.456093 0,372.684543"
       style="fill:#ffffff;stroke:#000000;stroke-width:0.26458332px;stroke-linecap:butt;stroke-linejoin:miter;stroke-opacity:1" />
    <path
       id="path12-6-0"
       d="m 201.83929,-35.997032 c 0,124.47989 0,248.456092 0,372.684542"
       style="fill:#ffffff;stroke:#000000;stroke-width:0.26458332px;stroke-linecap:butt;stroke-linejoin:miter;stroke-opacity:1" />
    <path
       id="path12-6-6"
       d="m 226.02976,-23.901794 c 0,124.479894 0,248.456094 0,372.684544"
       style="fill:#ffffff;stroke:#000000;stroke-width:0.26458332px;stroke-linecap:butt;stroke-linejoin:miter;stroke-opacity:1" />
    <path
       id="path12-6-5-8"
       d="m 86.934525,-21.633937 c 0,124.479897 0,248.456107 0,372.684547"
       style="fill:#ffffff;stroke:#000000;stroke-width:0.26458332px;stroke-linecap:butt;stroke-linejoin:miter;stroke-opacity:1" />
    <path
       id="path12-6-5-8-9"
       d="m 182.18452,-26.169651 c 0,124.479903 0,248.456111 0,372.684541"
       style="fill:#ffffff;stroke:#000000;stroke-width:0.26458332px;stroke-linecap:butt;stroke-linejoin:miter;stroke-opacity:1" />
    <path
       id="path158"
       d="M -37.041666,-0.84523809 C 65.012169,-0.59325332 167.06574,-0.34126921 269.11906,-0.08928571"
       style="fill:none;stroke:#000000;stroke-width:0.26458332px;stroke-linecap:butt;stroke-linejoin:miter;stroke-opacity:1" />
    <path
       id="path158-3"
       d="M -41.955357,15.407738 C 60.098475,15.659723 162.15206,15.911707 264.20535,16.163691"
       style="fill:none;stroke:#000000;stroke-width:0.26458332px;stroke-linecap:butt;stroke-linejoin:miter;stroke-opacity:1" />
    <path
       id="path158-3-5"
       d="M -46.491071,36.574404 C 55.562762,36.826389 157.61635,37.078373 259.66964,37.330357"
       style="fill:none;stroke:#000000;stroke-width:0.26458332px;stroke-linecap:butt;stroke-linejoin:miter;stroke-opacity:1" />
    <path
       id="path158-3-2"
       d="m -49.514881,115.19345 c 102.053832,0.25198 204.107421,0.50397 306.160711,0.75595"
       style="fill:none;stroke:#000000;stroke-width:0.26458332px;stroke-linecap:butt;stroke-linejoin:miter;stroke-opacity:1" />
    <path
       id="path158-3-8"
       d="M -49.514881,54.717261 C 52.538951,54.969246 154.59254,55.22123 256.64583,55.473214"
       style="fill:none;stroke:#000000;stroke-width:0.26458332px;stroke-linecap:butt;stroke-linejoin:miter;stroke-opacity:1" />
    <path
       id="path158-3-3"
       d="M -44.979166,81.175595 C 57.074666,81.42758 159.12826,81.679564 261.18155,81.931548"
       style="fill:none;stroke:#000000;stroke-width:0.26458332px;stroke-linecap:butt;stroke-linejoin:miter;stroke-opacity:1" />
    <path
       id="path158-3-1"
       d="m -39.687499,153.74702 c 102.053832,0.25199 204.107429,0.50397 306.160719,0.75596"
       style="fill:none;stroke:#000000;stroke-width:0.26458332px;stroke-linecap:butt;stroke-linejoin:miter;stroke-opacity:1" />
    <path
       id="path158-3-31"
       d="m -49.51488,252.02083 c 102.053832,0.25199 204.10742,0.50397 306.16071,0.75596"
       style="fill:none;stroke:#000000;stroke-width:0.26458332px;stroke-linecap:butt;stroke-linejoin:miter;stroke-opacity:1" />
    <path
       id="path158-3-7"
       d="m -48.758928,316.27679 c 102.053833,0.25198 204.107428,0.50397 306.160718,0.75595"
       style="fill:none;stroke:#000000;stroke-width:0.26458332px;stroke-linecap:butt;stroke-linejoin:miter;stroke-opacity:1" />
    <path
       id="path158-3-4"
       d="m -37.419643,131.8244 c 102.053833,0.25198 204.107423,0.50397 306.160713,0.75595"
       style="fill:none;stroke:#000000;stroke-width:0.26458332px;stroke-linecap:butt;stroke-linejoin:miter;stroke-opacity:1" />
    <path
       id="path158-3-0"
       d="m -41.955357,175.66964 c 102.053833,0.25199 204.107427,0.50397 306.160717,0.75596"
       style="fill:none;stroke:#000000;stroke-width:0.26458332px;stroke-linecap:butt;stroke-linejoin:miter;stroke-opacity:1" />
    <path
       id="path158-3-6"
       d="m -41.955357,193.8125 c 102.053833,0.25198 204.107427,0.50397 306.160717,0.75595"
       style="fill:none;stroke:#000000;stroke-width:0.26458332px;stroke-linecap:butt;stroke-linejoin:miter;stroke-opacity:1" />
    <path
       id="path158-3-06"
       d="m -49.514881,215.73512 c 102.053833,0.25198 204.107431,0.50397 306.160721,0.75595"
       style="fill:none;stroke:#000000;stroke-width:0.26458332px;stroke-linecap:butt;stroke-linejoin:miter;stroke-opacity:1" />
    <path
       id="path158-3-061"
       d="m -38.931547,233.87798 c 102.053832,0.25198 204.107427,0.50397 306.160717,0.75595"
       style="fill:none;stroke:#000000;stroke-width:0.26458332px;stroke-linecap:butt;stroke-linejoin:miter;stroke-opacity:1" />
    <path
       id="path158-3-47"
       d="m -35.907738,271.6756 c 102.053832,0.25198 204.107428,0.50397 306.160718,0.75595"
       style="fill:none;stroke:#000000;stroke-width:0.26458332px;stroke-linecap:butt;stroke-linejoin:miter;stroke-opacity:1" />
    <path
       id="path158-3-69"
       d="m -32.883928,288.30655 c 102.053832,0.25198 204.107428,0.50397 306.160718,0.75595"
       style="fill:none;stroke:#000000;stroke-width:0.26458332px;stroke-linecap:butt;stroke-linejoin:miter;stroke-opacity:1" />
  </g>
</svg>
